#!OML:ASF X:\für Bonn\!DataBase\2005_08_12_Daniel\c3d\Daniel.ASF
:FULLY-SPECIFIED
:DEGREES
33
root -0.319566 17.3815 0.868665 20.7093 -73.9659 -51.9786
lowerback 49.8642 -17.0587 -1.54029
upperback 13.3502 -24.2118 -2.41258
thorax -4.70257 -12.8132 7.63255
lowerneck 0.761188 11.0968 -2.49913
upperneck 10.2751 14.9584 -5.90339
head 3.52414 6.91597 -1.07715
rclavicle 4.77083e-014 2.06736e-014
rhumerus -61.6499 11.9693 -75.036
rradius 62.6521
rwrist 8.61929
rhand -42.0966 45.2631
rfingers 7.12502
rthumb -14.9882 15.8255
lclavicle 4.77083e-014 2.06736e-014
lhumerus 36.7764 0.14217 73.3988
lradius 130.848
lwrist 24.7742
lhand -20.5766 -19.567
lfingers 7.12502
lthumb 5.78315 10.3341
rfemur -69.1339 -8.83025 31.9261
rtibia 115.788
rfoot -1.7071 2.54646
rtoes -10.8868
lfemur 18.1982 -16.6734 -17.9962
ltibia 27.4799
lfoot -18.8109 7.1733
ltoes 5.73946
34
root -0.326088 17.3895 0.876789 20.9494 -73.9107 -52.6897
lowerback 50.7239 -17.0948 -1.72502
upperback 13.3657 -24.3834 -2.38404
thorax -4.71814 -12.9264 7.8541
lowerneck 0.663721 11.0962 -2.30172
upperneck 10.0667 14.977 -6.15378
head 3.51071 6.93378 -1.18421
rclavicle -7.95139e-016 2.8625e-014
rhumerus -62.3597 11.0178 -74.9334
rradius 62.0881
rwrist 8.32909
rhand -42.3944 46.3017
rfingers 7.12502
rthumb -15.275 16.8857
lclavicle -7.95139e-016 2.8625e-014
lhumerus 36.3399 -0.348821 73.8836
lradius 130.728
lwrist 24.4783
lhand -20.4414 -19.7835
lfingers 7.12502
lthumb 5.91369 10.114
rfemur -71.3315 -9.06374 32.6089
rtibia 116.933
rfoot -1.56707 2.997
rtoes -10.4524
lfemur 19.0327 -16.4687 -17.8031
ltibia 26.8527
lfoot -18.5354 7.00938
ltoes 5.7967
35
root -0.329746 17.3999 0.885073 21.3575 -73.8935 -53.5083
lowerback 51.5548 -17.1159 -1.87239
upperback 13.3448 -24.5158 -2.36137
thorax -4.77977 -13.0101 8.04585
lowerneck 0.631313 11.0837 -2.06955
upperneck 9.82913 14.9728 -6.40458
head 3.47779 6.94419 -1.30232
rclavicle -3.49861e-014 6.20208e-014
rhumerus -63.0705 10.1498 -74.8935
rradius 61.5789
rwrist 7.82642
rhand -42.5364 47.2932
rfingers 7.12502
rthumb -15.4119 17.8877
lclavicle -3.49861e-014 6.20208e-014
lhumerus 35.8618 -0.817312 74.3678
lradius 130.577
lwrist 24.0806
lhand -20.2748 -20.0114
lfingers 7.12502
lthumb 6.0745 9.88155
rfemur -73.4852 -9.23987 33.3189
rtibia 117.955
rfoot -1.52864 3.33689
rtoes -10.2488
lfemur 19.7693 -16.155 -17.5303
ltibia 26.2454
lfoot -18.2147 6.803
ltoes 5.79381
36
root -0.331158 17.4113 0.893888 21.8422 -73.9258 -54.3253
lowerback 52.3284 -17.1023 -2.03988
upperback 13.2889 -24.6123 -2.308
thorax -4.85429 -13.0739 8.25926
lowerneck 0.606863 11.0676 -1.89194
upperneck 9.60945 14.9612 -6.63374
head 3.44288 6.94848 -1.40587
rclavicle 1.08139e-013 -1.62208e-013
rhumerus -63.6902 9.38169 -74.8381
rradius 61.1624
rwrist 7.22855
rhand -42.5183 48.1045
rfingers 7.12502
rthumb -15.3944 18.6977
lclavicle 1.08139e-013 -1.62208e-013
lhumerus 35.3246 -1.19366 74.9628
lradius 130.36
lwrist 23.679
lhand -19.9812 -20.303
lfingers 7.12502
lthumb 6.35801 9.58159
rfemur -75.5961 -9.37542 34.0194
rtibia 118.867
rfoot -1.61161 3.57498
rtoes -10.4959
lfemur 20.4083 -15.8062 -17.2535
ltibia 25.6581
lfoot -17.921 6.57547
ltoes 5.85586
37
root -0.331136 17.4252 0.902683 22.3707 -73.9807 -55.1439
lowerback 53.0331 -17.0715 -2.19444
upperback 13.2366 -24.6829 -2.25935
thorax -4.92048 -13.124 8.44545
lowerneck 0.596379 11.0451 -1.65331
upperneck 9.38596 14.942 -6.90033
head 3.41306 6.95031 -1.53204
rclavicle -5.08889e-014 1.66979e-013
rhumerus -64.2934 8.6248 -74.8115
rradius 60.9157
rwrist 6.5998
rhand -42.4573 48.5404
rfingers 7.12502
rthumb -15.3357 19.129
lclavicle -5.08889e-014 1.66979e-013
lhumerus 34.572 -1.47797 75.5666
lradius 130.195
lwrist 23.2408
lhand -19.6001 -20.6314
lfingers 7.12502
lthumb 6.72589 9.24175
rfemur -77.6183 -9.51436 34.7046
rtibia 119.696
rfoot -1.77674 3.78681
rtoes -11.1921
lfemur 20.9817 -15.4368 -16.9692
ltibia 25.0948
lfoot -17.6344 6.3561
ltoes 5.93425
38
root -0.330558 17.4351 0.911817 22.9253 -74.0605 -55.9336
lowerback 53.6631 -17.0284 -2.33344
upperback 13.1767 -24.729 -2.21129
thorax -4.99072 -13.1587 8.61103
lowerneck 0.628854 11.016 -1.49715
upperneck 9.13086 14.9046 -7.09594
head 3.34959 6.94548 -1.6272
rclavicle -8.18993e-014 -7.95139e-015
rhumerus -64.8364 7.86974 -74.8074
rradius 60.7623
rwrist 5.99221
rhand -42.2925 48.5726
rfingers 7.12502
rthumb -15.1769 19.1491
lclavicle -8.18993e-014 -7.95139e-015
lhumerus 33.6297 -1.65139 76.0951
lradius 130.087
lwrist 22.8638
lhand -19.1971 -20.9811
lfingers 7.12502
lthumb 7.11491 8.87926
rfemur -79.5416 -9.63187 35.3387
rtibia 120.463
rfoot -2.04293 3.95217
rtoes -11.785
lfemur 21.4501 -15.0115 -16.6709
ltibia 24.603
lfoot -17.3328 6.10526
ltoes 5.93904
39
root -0.328894 17.4404 0.921622 23.5584 -74.1834 -56.7565
lowerback 54.2513 -16.9722 -2.47501
upperback 13.0834 -24.7572 -2.16708
thorax -5.09529 -13.1761 8.77086
lowerneck 0.750901 10.9927 -1.26854
upperneck 8.85349 14.8707 -7.35851
head 3.27544 6.94476 -1.76073
rclavicle -1.28017e-013 1.54257e-013
rhumerus -65.3249 7.23678 -74.8731
rradius 60.6689
rwrist 5.39559
rhand -42.2526 48.2827
rfingers 7.12502
rthumb -15.1385 18.8563
lclavicle -1.28017e-013 1.54257e-013
lhumerus 32.7382 -1.66811 76.7078
lradius 129.713
lwrist 22.5223
lhand -18.6531 -21.4096
lfingers 7.12502
lthumb 7.64001 8.4324
rfemur -81.2401 -9.65915 35.9026
rtibia 121.102
rfoot -2.48031 4.01472
rtoes -12.3008
lfemur 21.832 -14.5794 -16.3946
ltibia 24.1985
lfoot -17.0868 5.8733
ltoes 6.06145
40
root -0.327476 17.4423 0.931938 24.279 -74.336 -57.6213
lowerback 54.7238 -16.8966 -2.58929
upperback 13.0171 -24.7498 -2.13161
thorax -5.17112 -13.178 8.8852
lowerneck 0.82965 10.9563 -1.09837
upperneck 8.61182 14.8189 -7.53159
head 3.20702 6.93421 -1.85413
rclavicle 4.13472e-014 -2.06736e-014
rhumerus -65.6931 6.60077 -74.9301
rradius 60.5765
rwrist 4.97645
rhand -42.2836 47.8009
rfingers 7.12502
rthumb -15.1683 18.3768
lclavicle 4.13472e-014 -2.06736e-014
lhumerus 32.0812 -1.58997 77.4532
lradius 129.078
lwrist 22.2575
lhand -17.9664 -21.8656
lfingers 7.12502
lthumb 8.30271 7.95122
rfemur -82.6347 -9.6652 36.3621
rtibia 121.597
rfoot -2.90341 4.02076
rtoes -12.9567
lfemur 22.1337 -14.1439 -16.1415
ltibia 23.8692
lfoot -16.8927 5.68329
ltoes 6.0746
41
root -0.324822 17.4451 0.942669 25.069 -74.4951 -58.5011
lowerback 55.1042 -16.8273 -2.68441
upperback 12.9582 -24.7379 -2.10357
thorax -5.23738 -13.1762 8.97616
lowerneck 0.886891 10.9228 -0.945878
upperneck 8.38803 14.7714 -7.67477
head 3.14447 6.92493 -1.9335
rclavicle 1.11319e-014 1.59028e-014
rhumerus -65.9435 6.11121 -75.0662
rradius 60.4746
rwrist 4.60305
rhand -42.4021 47.1645
rfingers 7.12502
rthumb -15.2825 17.7491
lclavicle 1.11319e-014 1.59028e-014
lhumerus 31.6115 -1.39753 78.0565
lradius 128.493
lwrist 22.1196
lhand -17.4266 -22.0895
lfingers 7.12502
lthumb 8.82372 7.70601
rfemur -83.7442 -9.68733 36.6695
rtibia 121.933
rfoot -3.00583 3.96517
rtoes -12.4819
lfemur 22.3166 -13.7224 -15.8888
ltibia 23.6666
lfoot -16.7777 5.48011
ltoes 6.16968
42
root -0.321087 17.4508 0.953212 25.8911 -74.6963 -59.3704
lowerback 55.4084 -16.7366 -2.78585
upperback 12.8789 -24.6988 -2.07472
thorax -5.32172 -13.1553 9.06017
lowerneck 0.980453 10.8823 -0.778415
upperneck 8.20295 14.7128 -7.81213
head 3.08908 6.9091 -2.01521
rclavicle 8.98507e-014 -1.04958e-013
rhumerus -66.1004 5.74222 -75.1883
rradius 60.3123
rwrist 4.38489
rhand -42.6019 46.6052
rfingers 7.12502
rthumb -15.4749 17.2046
lclavicle 8.98507e-014 -1.04958e-013
lhumerus 31.4122 -1.17279 78.3341
lradius 128.039
lwrist 22.1487
lhand -17.1829 -21.9963
lfingers 7.12502
lthumb 9.05887 7.78918
rfemur -84.6282 -9.70931 36.8529
rtibia 122.155
rfoot -3.0887 3.98507
rtoes -12.1606
lfemur 22.3823 -13.3313 -15.7108
ltibia 23.6336
lfoot -16.7365 5.35797
ltoes 6.18523
43
root -0.318736 17.4453 0.96539 26.8145 -74.8943 -60.3259
lowerback 55.6122 -16.6534 -2.82443
upperback 12.8374 -24.637 -2.06162
thorax -5.3785 -13.1254 9.08532
lowerneck 1.0271 10.8269 -0.693854
upperneck 8.03989 14.6338 -7.86122
head 3.03293 6.88171 -2.05312
rclavicle 5.96354e-014 -1.20861e-013
rhumerus -66.1026 5.47905 -75.3372
rradius 60.0605
rwrist 4.27004
rhand -42.7995 46.2208
rfingers 7.12502
rthumb -15.6653 16.835
lclavicle 5.96354e-014 -1.20861e-013
lhumerus 31.5599 -1.01477 78.2391
lradius 127.695
lwrist 22.2708
lhand -17.4063 -21.6252
lfingers 7.12502
lthumb 8.8433 8.16949
rfemur -85.135 -9.7832 36.9742
rtibia 122.251
rfoot -3.22496 4.14114
rtoes -11.9031
lfemur 22.3741 -12.9615 -15.5417
ltibia 23.7258
lfoot -16.7806 5.24734
ltoes 6.21115
44
root -0.318645 17.4301 0.978237 27.8425 -75.1085 -61.3358
lowerback 55.7205 -16.5717 -2.85104
upperback 12.7861 -24.5649 -2.0511
thorax -5.44403 -13.0859 9.09736
lowerneck 1.17104 10.7765 -0.636929
upperneck 7.83861 14.5529 -7.9116
head 2.94401 6.8557 -2.09355
rclavicle -2.0276e-013 1.00187e-013
rhumerus -65.9715 5.29453 -75.4468
rradius 59.6962
rwrist 4.25493
rhand -42.9706 46.1396
rfingers 7.12502
rthumb -15.83 16.7668
lclavicle -2.0276e-013 1.00187e-013
lhumerus 31.9926 -0.896283 77.9137
lradius 127.306
lwrist 22.4941
lhand -18.0446 -21.2098
lfingers 7.12502
lthumb 8.22725 8.60999
rfemur -85.3398 -9.88327 37.0671
rtibia 122.289
rfoot -3.08061 4.26306
rtoes -10.1255
lfemur 22.2698 -12.6328 -15.4145
ltibia 23.9317
lfoot -16.9041 5.19057
ltoes 6.2514
